<svg width="388" height="577" viewBox="0 0 388 577" fill="none" xmlns="http://www.w3.org/2000/svg">
<path d="M381.932 478.225C373.574 446.846 369.238 401.752 364.217 349.536C358.903 294.277 365.83 198.821 377.22 170.348C391.479 134.702 372.229 106.424 362.978 92.835C362.345 91.906 361.746 91.027 361.194 90.197C358.246 85.777 351.629 79.117 324.894 63.245C293.697 44.726 257.897 34.937 221.363 34.937H166.266C129.732 34.937 93.9323 44.726 62.7343 63.245C36.0003 79.116 29.3823 85.775 26.4333 90.198C25.8813 91.027 25.2823 91.906 24.6493 92.836C15.3983 106.425 -3.84965 134.702 10.4084 170.346C21.7974 198.82 28.7243 294.276 23.4113 349.535C18.3903 401.749 14.0543 446.842 5.69534 478.224C1.11134 495.435 -6.56166 524.24 10.8643 546.915C25.9853 566.592 55.8824 576.157 102.263 576.157H285.366C331.746 576.156 361.643 566.591 376.765 546.915C394.188 524.242 386.516 495.436 381.932 478.225Z" fill="#EFEFEF"/>
<path d="M204.831 34.9379H182.796C178.303 34.9379 174.627 31.2619 174.627 26.7689V15.8859C174.627 11.3929 178.303 7.71692 182.796 7.71692H204.831C209.324 7.71692 213 11.3929 213 15.8859V26.7689C213 31.2619 209.324 34.9379 204.831 34.9379Z" fill="#C6BABA"/>
<path d="M113.491 70.182H94.9113C91.0073 70.182 87.8133 66.988 87.8133 63.084V7.42697C87.8133 3.52297 91.0073 0.328979 94.9113 0.328979H113.491C117.395 0.328979 120.589 3.52297 120.589 7.42697V63.084C120.589 66.988 117.395 70.182 113.491 70.182Z" fill="#EFEFEF"/>
<path d="M116.063 15.917H91.7063C91.2793 15.917 90.9333 15.571 90.9333 15.144C90.9333 14.716 91.2793 14.371 91.7063 14.371H116.063C116.491 14.371 116.836 14.717 116.836 15.144C116.837 15.571 116.491 15.917 116.063 15.917Z" fill="#C1B8B8"/>
<path d="M116.063 23.004H91.7063C91.2793 23.004 90.9333 22.658 90.9333 22.231C90.9333 21.803 91.2793 21.458 91.7063 21.458H116.063C116.491 21.458 116.836 21.804 116.836 22.231C116.837 22.658 116.491 23.004 116.063 23.004Z" fill="#C1B8B8"/>
<path d="M280.931 69.853H299.511C303.415 69.853 306.609 66.659 306.609 62.755V7.09799C306.609 3.19399 303.415 0 299.511 0H280.931C277.027 0 273.833 3.19399 273.833 7.09799V62.755C273.833 66.659 277.027 69.853 280.931 69.853Z" fill="#EFEFEF"/>
<path d="M278.359 15.589H302.716C303.144 15.589 303.489 15.243 303.489 14.816C303.489 14.388 303.143 14.043 302.716 14.043H278.359C277.931 14.043 277.586 14.389 277.586 14.816C277.585 15.243 277.931 15.589 278.359 15.589Z" fill="#C1B8B8"/>
<path d="M278.359 22.676H302.716C303.144 22.676 303.489 22.33 303.489 21.903C303.489 21.475 303.143 21.13 302.716 21.13H278.359C277.931 21.13 277.586 21.476 277.586 21.903C277.585 22.33 277.931 22.676 278.359 22.676Z" fill="#C1B8B8"/>
</svg>
