<svg width="264" height="296" viewBox="0 0 264 296" fill="none" xmlns="http://www.w3.org/2000/svg">
<g filter="url(#filter0_d_158_554)">
<path d="M242.588 32.13H4V287.341H242.588V32.13Z" fill="#EFEFEF"/>
<path d="M233.461 278.414H13.128C12.666 278.414 12.291 278.039 12.291 277.577V41.893C12.291 41.431 12.666 41.056 13.128 41.056H233.461C233.923 41.056 234.298 41.431 234.298 41.893V277.577C234.298 278.039 233.923 278.414 233.461 278.414ZM13.965 276.74H232.624V42.729H13.965V276.74Z" fill="black"/>
<path d="M99.017 278.414H13.128C12.666 278.414 12.291 278.039 12.291 277.577V71.494C12.291 71.032 12.666 70.657 13.128 70.657H99.017C99.479 70.657 99.854 71.032 99.854 71.494V277.577C99.853 278.039 99.478 278.414 99.017 278.414ZM13.965 276.74H98.18V72.331H13.965V276.74Z" fill="black"/>
<path d="M233.461 72.331H13.128C12.666 72.331 12.291 71.956 12.291 71.494V41.892C12.291 41.43 12.666 41.055 13.128 41.055H233.461C233.923 41.055 234.298 41.43 234.298 41.892V71.494C234.298 71.956 233.923 72.331 233.461 72.331ZM13.965 70.657H232.624V42.729H13.965V70.657Z" fill="black"/>
<path d="M75.461 238.624C75.461 226.611 63.928 212.078 58.468 204.523C57.913 203.754 56.992 203.37 56.072 203.37C55.152 203.37 54.231 203.754 53.676 204.523C48.217 212.078 36.683 226.612 36.683 238.624C36.683 250.637 44.612 256.7 56.072 256.7C67.531 256.7 75.461 250.636 75.461 238.624Z" fill="#BB1616"/>
<path d="M249.189 113.387H126.037C120.227 113.387 115.517 108.677 115.517 102.867V10.52C115.517 4.71002 120.227 0 126.037 0H249.189C254.999 0 259.709 4.71002 259.709 10.52V102.867C259.709 108.677 254.999 113.387 249.189 113.387Z" fill="#C7E2E1"/>
<path d="M132.592 61.408H129.366V100.295H132.592V61.408Z" fill="black"/>
<path d="M135.805 61.408H134.366V100.295H135.805V61.408Z" fill="black"/>
<path d="M141.459 61.408H138.255V100.295H141.459V61.408Z" fill="black"/>
<path d="M146.54 61.408H143.336V100.295H146.54V61.408Z" fill="black"/>
<path d="M149.693 61.408H148.418V100.295H149.693V61.408Z" fill="black"/>
<path d="M154.137 61.408H152.862V100.295H154.137V61.408Z" fill="black"/>
<path d="M158.581 61.408H156.031V100.295H158.581V61.408Z" fill="black"/>
<path d="M164.147 61.408H160.475V100.295H164.147V61.408Z" fill="black"/>
<path d="M166.826 61.408H165.564V100.295H166.826V61.408Z" fill="black"/>
<path d="M171.184 61.408H170.093V100.295H171.184V61.408Z" fill="black"/>
<path d="M174.518 61.408H173.808V100.295H174.518V61.408Z" fill="black"/>
<path d="M180.802 61.408H176.313V100.295H180.802V61.408Z" fill="black"/>
<path d="M184.669 61.408H183.274V100.295H184.669V61.408Z" fill="black"/>
<path d="M189.691 61.408H187.141V100.295H189.691V61.408Z" fill="black"/>
<path d="M194.135 61.408H191.585V100.295H194.135V61.408Z" fill="black"/>
<path d="M198.579 61.408H197.304V100.295H198.579V61.408Z" fill="black"/>
<path d="M244.676 19.747H129.366C128.904 19.747 128.529 19.372 128.529 18.91C128.529 18.448 128.904 18.073 129.366 18.073H244.676C245.138 18.073 245.513 18.448 245.513 18.91C245.513 19.372 245.137 19.747 244.676 19.747Z" fill="black"/>
<path d="M244.676 31.238H129.366C128.904 31.238 128.529 30.863 128.529 30.401C128.529 29.939 128.904 29.564 129.366 29.564H244.676C245.138 29.564 245.513 29.939 245.513 30.401C245.513 30.863 245.137 31.238 244.676 31.238Z" fill="black"/>
<path d="M244.676 42.729H129.366C128.904 42.729 128.529 42.355 128.529 41.892C128.529 41.429 128.904 41.055 129.366 41.055H244.676C245.138 41.055 245.513 41.43 245.513 41.892C245.513 42.354 245.137 42.729 244.676 42.729Z" fill="black"/>
<path d="M233.461 184.829H99.017C98.555 184.829 98.18 184.454 98.18 183.992C98.18 183.53 98.555 183.155 99.017 183.155H233.461C233.923 183.155 234.298 183.53 234.298 183.992C234.298 184.454 233.923 184.829 233.461 184.829Z" fill="black"/>
<path d="M233.461 200.754H99.017C98.555 200.754 98.18 200.379 98.18 199.917C98.18 199.455 98.555 199.08 99.017 199.08H233.461C233.923 199.08 234.298 199.455 234.298 199.917C234.298 200.379 233.923 200.754 233.461 200.754Z" fill="black"/>
<path d="M86.907 100.999H22.91C22.448 100.999 22.073 100.624 22.073 100.162C22.073 99.7 22.448 99.325 22.91 99.325H86.907C87.369 99.325 87.744 99.7 87.744 100.162C87.744 100.624 87.369 100.999 86.907 100.999Z" fill="black"/>
<path d="M86.907 110.02H22.91C22.448 110.02 22.073 109.645 22.073 109.183C22.073 108.721 22.448 108.346 22.91 108.346H86.907C87.369 108.346 87.744 108.721 87.744 109.183C87.744 109.645 87.369 110.02 86.907 110.02Z" fill="black"/>
<path d="M86.907 119.039H22.91C22.448 119.039 22.073 118.664 22.073 118.202C22.073 117.74 22.448 117.365 22.91 117.365H86.907C87.369 117.365 87.744 117.74 87.744 118.202C87.744 118.664 87.369 119.039 86.907 119.039Z" fill="black"/>
<path d="M86.907 128.06H22.91C22.448 128.06 22.073 127.685 22.073 127.223C22.073 126.761 22.448 126.386 22.91 126.386H86.907C87.369 126.386 87.744 126.761 87.744 127.223C87.744 127.685 87.369 128.06 86.907 128.06Z" fill="black"/>
<path d="M86.907 137.079H22.91C22.448 137.079 22.073 136.704 22.073 136.242C22.073 135.78 22.448 135.405 22.91 135.405H86.907C87.369 135.405 87.744 135.78 87.744 136.242C87.744 136.704 87.369 137.079 86.907 137.079Z" fill="black"/>
<path d="M180.417 217.362H116.419C115.957 217.362 115.582 216.987 115.582 216.525C115.582 216.063 115.957 215.688 116.419 215.688H180.417C180.879 215.688 181.254 216.063 181.254 216.525C181.254 216.987 180.879 217.362 180.417 217.362Z" fill="black"/>
<path d="M180.417 226.382H116.419C115.957 226.382 115.582 226.007 115.582 225.545C115.582 225.083 115.957 224.708 116.419 224.708H180.417C180.879 224.708 181.254 225.083 181.254 225.545C181.254 226.007 180.879 226.382 180.417 226.382Z" fill="black"/>
<path d="M180.417 235.402H116.419C115.957 235.402 115.582 235.027 115.582 234.565C115.582 234.103 115.957 233.728 116.419 233.728H180.417C180.879 233.728 181.254 234.103 181.254 234.565C181.254 235.027 180.879 235.402 180.417 235.402Z" fill="black"/>
<path d="M180.417 244.423H116.419C115.957 244.423 115.582 244.048 115.582 243.586C115.582 243.124 115.957 242.749 116.419 242.749H180.417C180.879 242.749 181.254 243.124 181.254 243.586C181.254 244.048 180.879 244.423 180.417 244.423Z" fill="black"/>
<path d="M180.417 253.442H116.419C115.957 253.442 115.582 253.067 115.582 252.605C115.582 252.143 115.957 251.768 116.419 251.768H180.417C180.879 251.768 181.254 252.143 181.254 252.605C181.254 253.067 180.879 253.442 180.417 253.442Z" fill="black"/>
<path d="M207.371 245.731H202.952C201.962 245.731 201.156 244.926 201.156 243.936V238.57H195.791C194.801 238.57 193.995 237.765 193.995 236.775V232.355C193.995 231.365 194.801 230.559 195.791 230.559H201.156V225.194C201.156 224.204 201.962 223.399 202.952 223.399H207.371C208.361 223.399 209.167 224.204 209.167 225.194V230.559H214.532C215.522 230.559 216.328 231.365 216.328 232.355V236.775C216.328 237.765 215.522 238.57 214.532 238.57H209.167V243.936C209.167 244.927 208.361 245.731 207.371 245.731ZM195.791 232.234C195.723 232.234 195.669 232.289 195.669 232.356V236.776C195.669 236.843 195.724 236.897 195.791 236.897H202.83V243.937C202.83 244.003 202.885 244.058 202.952 244.058H207.371C207.438 244.058 207.493 244.003 207.493 243.937V236.897H214.532C214.599 236.897 214.654 236.842 214.654 236.776V232.356C214.654 232.289 214.599 232.234 214.532 232.234H207.493V225.195C207.493 225.129 207.438 225.074 207.371 225.074H202.952C202.885 225.074 202.83 225.129 202.83 225.195V232.234H195.791Z" fill="#BB1616"/>
<path d="M235.56 97.927L232.296 90.343H216.313L213.048 97.927H205.512L221.208 63.751H227.256L242.952 97.927H235.56ZM218.808 84.631H229.848L224.328 71.815L218.808 84.631Z" fill="#BB1616"/>
</g>
<defs>
<filter id="filter0_d_158_554" x="0" y="0" width="263.709" height="295.341" filterUnits="userSpaceOnUse" color-interpolation-filters="sRGB">
<feFlood flood-opacity="0" result="BackgroundImageFix"/>
<feColorMatrix in="SourceAlpha" type="matrix" values="0 0 0 0 0 0 0 0 0 0 0 0 0 0 0 0 0 0 127 0" result="hardAlpha"/>
<feOffset dy="4"/>
<feGaussianBlur stdDeviation="2"/>
<feComposite in2="hardAlpha" operator="out"/>
<feColorMatrix type="matrix" values="0 0 0 0 0 0 0 0 0 0 0 0 0 0 0 0 0 0 0.25 0"/>
<feBlend mode="normal" in2="BackgroundImageFix" result="effect1_dropShadow_158_554"/>
<feBlend mode="normal" in="SourceGraphic" in2="effect1_dropShadow_158_554" result="shape"/>
</filter>
</defs>
</svg>
